<?xml version="1.0" standalone="no"?>
<!DOCTYPE svg PUBLIC "-//W3C//DTD SVG 20010904//EN"
 "http://www.w3.org/TR/2001/REC-SVG-20010904/DTD/svg10.dtd">
<svg version="1.0" xmlns="http://www.w3.org/2000/svg"
 width="1024.000000pt" height="1024.000000pt" viewBox="0 0 1024.000000 1024.000000"
 preserveAspectRatio="xMidYMid meet">

<g transform="translate(0.000000,1024.000000) scale(0.100000,-0.100000)"
fill="#000000" stroke="none">
<path d="M4763 6833 l-361 -3 35 -133 c79 -298 154 -561 161 -567 4 -3 206 -4
450 -2 343 2 443 5 439 15 -3 9 -75 13 -289 15 l-285 2 -112 115 c-96 99 -115
114 -131 105 -29 -16 -49 -12 -75 15 -30 30 -32 64 -4 99 22 29 71 35 100 13
24 -19 41 -56 34 -77 -5 -15 19 -44 103 -128 l109 -109 267 -2 c234 -2 266 0
266 13 0 36 -43 172 -58 184 -10 8 -53 12 -128 12 -108 0 -112 -1 -128 -25
-34 -52 -136 -21 -136 41 0 12 9 33 21 48 30 38 79 36 112 -4 l26 -30 115 0
c64 0 116 3 116 8 -1 12 -107 383 -111 387 -9 8 -194 11 -536 8z m-145 -89
c12 -8 22 -24 22 -35 0 -18 9 -19 254 -19 241 0 254 1 259 19 2 11 19 27 37
36 41 21 83 6 100 -36 34 -82 -62 -135 -131 -73 -14 13 -57 15 -264 14 -230
-1 -249 -2 -273 -20 -44 -35 -97 -24 -117 24 -31 74 47 137 113 90z"/>
<path d="M4539 6704 c-19 -23 1 -49 37 -49 20 0 30 6 32 18 8 40 -43 63 -69
31z"/>
<path d="M5196 6705 c-9 -9 -16 -20 -16 -25 0 -15 32 -41 48 -38 24 5 39 35
26 56 -15 23 -38 26 -58 7z"/>
<path d="M1272 6773 l3 -58 190 -3 c105 -2 308 0 453 3 l262 7 0 54 0 54 -455
0 -456 0 3 -57z"/>
<path d="M3186 6788 c-19 -24 -114 -144 -209 -268 l-175 -225 354 -3 354 -2 0
-45 0 -45 -389 0 -389 0 -36 -50 c-20 -28 -36 -52 -36 -55 0 -3 128 -5 285 -5
l285 0 0 -45 0 -45 -317 0 -318 0 -75 -97 c-41 -53 -99 -128 -128 -167 l-53
-71 247 -5 248 -5 4 -42 3 -43 -786 0 -786 0 3 -57 3 -58 810 0 810 0 3 -47 3
-48 -120 0 -121 0 0 -105 0 -105 -695 0 -696 0 3 -57 3 -58 608 4 607 4 0
-107 0 -106 205 0 205 0 0 -45 0 -45 -423 0 c-233 0 -600 -3 -815 -7 l-392 -6
0 -54 0 -53 765 0 765 0 0 -45 0 -45 -200 0 c-110 0 -200 -2 -200 -5 0 -3 62
-83 137 -178 254 -319 279 -351 453 -577 96 -124 201 -258 233 -298 l60 -74
543 3 c299 2 544 4 544 5 0 6 -463 584 -901 1124 -78 96 -224 278 -325 403
l-184 228 303 382 c316 399 680 862 806 1026 40 53 103 133 138 179 l64 82
-525 0 -525 0 -35 -42z"/>
<path d="M6335 6818 c-2 -7 -32 -121 -65 -253 -34 -132 -90 -348 -125 -480
-35 -132 -101 -382 -146 -555 -78 -301 -144 -548 -155 -580 -9 -26 -21 8 -75
207 -27 103 -57 212 -66 241 l-17 52 -98 0 -99 0 -140 -140 -139 -140 0 -673
0 -673 51 -185 c28 -101 55 -191 60 -199 5 -9 9 328 9 799 l0 813 -25 20 c-35
27 -34 79 1 107 36 28 60 26 95 -8 37 -37 37 -66 0 -100 l-30 -28 -3 -819 -3
-819 121 -3 121 -3 6 272 c4 150 7 358 7 463 l0 192 -30 26 c-72 63 -2 172 82
127 18 -10 28 -3 87 55 l66 66 -110 110 c-75 74 -115 108 -125 104 -41 -17
-60 -15 -84 9 -49 50 -22 127 44 127 40 0 80 -39 80 -77 0 -23 22 -50 110
-138 l110 -109 66 66 67 66 -2 84 c-2 68 -6 87 -23 105 -29 31 -29 90 1 114
32 26 67 24 96 -6 37 -36 28 -107 -14 -118 -19 -5 -21 -12 -21 -99 l0 -93
-155 -155 c-117 -117 -155 -161 -155 -180 0 -31 -8 -44 -37 -59 l-23 -12 0
-469 0 -470 50 0 50 0 0 221 c0 206 -1 223 -20 246 -11 14 -20 38 -20 53 0 33
40 73 74 73 l26 0 0 189 0 189 195 201 195 202 0 151 0 151 -50 49 -50 49 0
83 c0 74 -2 83 -19 83 -16 0 -19 10 -24 73 -3 39 -3 74 -2 75 2 2 22 6 44 9
40 6 41 6 41 46 0 30 -6 46 -25 63 -48 45 -15 134 50 134 14 0 37 -11 50 -25
34 -33 33 -76 -2 -112 -23 -23 -27 -35 -25 -70 l3 -43 80 0 79 0 2 183 c2 251
6 231 -68 309 -35 38 -64 73 -64 78 0 29 29 13 95 -56 l75 -77 0 -606 -1 -606
-145 -150 c-80 -82 -167 -176 -195 -208 l-49 -58 2 -447 c3 -390 5 -447 18
-447 13 0 15 58 18 449 l2 450 72 75 c40 42 128 133 196 204 l124 127 -2 493
c-1 270 -4 570 -7 665 l-6 173 -43 48 -44 49 0 196 0 196 50 0 c46 0 50 2 50
24 0 13 -6 29 -14 35 -36 30 -26 97 18 127 67 43 145 -42 97 -106 -20 -27 -21
-41 -21 -216 l0 -186 49 -57 48 -56 7 -250 c3 -137 9 -423 12 -634 4 -211 10
-378 14 -370 4 8 20 65 35 127 16 61 32 112 36 112 5 0 17 -30 28 -67 11 -38
28 -95 38 -128 l18 -60 6 315 c15 705 22 965 28 970 3 3 25 26 49 52 l42 48 0
189 c0 155 -3 191 -15 201 -8 7 -15 29 -15 50 0 84 103 104 135 26 15 -36 9
-76 -14 -91 -6 -3 -11 -17 -11 -31 0 -22 4 -24 50 -24 l50 0 2 -147 c4 -259 8
-234 -45 -296 l-47 -55 0 -667 0 -667 188 -194 187 -194 5 -453 c4 -393 7
-452 20 -452 13 0 15 58 18 451 l2 450 -138 145 c-75 79 -163 171 -195 205
l-57 61 0 604 0 605 75 74 c59 59 77 72 87 62 10 -10 -2 -27 -55 -80 l-67 -68
0 -212 0 -213 82 3 81 3 4 43 c3 36 0 45 -23 66 -54 46 -25 135 44 136 28 0
72 -42 72 -69 0 -30 -21 -70 -40 -76 -15 -5 -16 -11 -7 -49 9 -41 12 -44 50
-50 34 -6 38 -9 33 -29 -3 -12 -6 -46 -6 -74 0 -50 -1 -53 -26 -53 l-25 0 6
-77 7 -78 -51 -60 -51 -59 0 -144 0 -145 42 -46 c23 -25 111 -118 195 -205
l154 -159 -3 -193 c-2 -122 0 -190 7 -184 16 17 45 11 70 -15 32 -31 34 -84 5
-110 -19 -18 -20 -29 -18 -239 l3 -221 48 -3 47 -3 0 465 0 464 -30 30 c-17
18 -30 41 -30 55 0 19 -38 63 -155 178 l-155 153 0 88 c0 82 -2 91 -24 111
-51 46 -26 137 38 137 37 0 76 -37 76 -71 0 -38 -16 -69 -35 -69 -12 0 -15
-18 -15 -93 l0 -92 64 -64 65 -63 28 20 c15 11 66 59 113 106 74 76 84 90 82
117 -8 70 84 108 127 53 35 -45 24 -92 -27 -113 -20 -8 -36 -9 -54 -2 -25 9
-33 3 -127 -95 -56 -58 -101 -109 -101 -113 0 -5 26 -37 58 -71 52 -57 60 -62
79 -52 32 17 57 15 87 -9 35 -28 36 -81 1 -113 l-25 -23 2 -464 3 -464 118 -3
117 -3 0 825 c0 800 -1 825 -19 831 -27 8 -45 57 -34 92 26 77 143 62 143 -18
0 -38 -16 -69 -35 -69 -13 0 -15 -106 -14 -817 0 -702 2 -812 14 -778 8 22 34
114 59 205 l45 165 2 520 c1 286 1 587 0 668 l-1 148 -139 140 -139 140 -103
-3 -103 -3 -23 -80 c-12 -44 -41 -150 -64 -235 -49 -180 -61 -201 -78 -138
-18 69 -135 514 -194 743 -30 116 -79 305 -110 420 -30 116 -76 293 -102 395
-25 102 -53 206 -62 233 l-15 47 -374 0 c-291 0 -376 -3 -379 -12z m-669
-1481 c17 -15 27 -33 27 -52 0 -35 -43 -75 -79 -75 -33 0 -74 42 -74 76 0 37
36 74 71 74 15 0 40 -10 55 -23z m2198 2 c34 -27 35 -71 1 -104 -13 -14 -36
-25 -50 -25 -14 0 -37 11 -50 25 -70 69 21 165 99 104z"/>
<path d="M5584 5306 c-12 -31 0 -51 30 -51 36 0 56 26 37 49 -17 20 -60 21
-67 2z"/>
<path d="M7784 5306 c-12 -31 0 -51 31 -51 27 0 30 3 30 30 0 25 -4 30 -28 33
-17 2 -29 -2 -33 -12z"/>
<path d="M8125 6818 c-9 -25 -88 -334 -93 -360 l-4 -28 115 0 c107 0 116 1
122 20 7 21 53 50 78 50 8 0 26 -10 41 -21 23 -18 27 -28 24 -62 -6 -75 -78
-99 -131 -44 -20 21 -30 23 -142 22 l-120 0 -22 -70 c-13 -38 -26 -85 -29
-102 l-6 -33 263 0 264 1 113 107 c99 94 112 111 112 140 0 72 87 109 129 56
28 -36 26 -70 -5 -100 -20 -21 -32 -25 -62 -21 -36 4 -41 1 -145 -102 l-107
-106 -287 -5 c-217 -4 -287 -8 -291 -17 -3 -10 91 -13 446 -13 l450 0 5 23 c8
36 169 651 174 664 4 10 -87 13 -441 13 -348 0 -448 -3 -451 -12z m793 -84
c25 -28 27 -45 10 -77 -28 -53 -79 -61 -128 -21 l-31 26 -242 -6 c-153 -3
-243 -9 -245 -16 -2 -6 -17 -17 -33 -25 -55 -29 -109 6 -109 71 0 35 22 59 63
69 23 6 33 2 62 -29 l34 -36 240 0 240 0 13 27 c15 32 55 55 83 47 11 -3 30
-17 43 -30z"/>
<path d="M8836 6717 c-36 -26 4 -84 42 -61 23 15 26 38 7 58 -20 19 -26 20
-49 3z"/>
<path d="M8186 6705 c-19 -20 -20 -26 -3 -49 26 -36 84 4 61 42 -15 23 -38 26
-58 7z"/>
<path d="M6442 6678 c-32 -32 18 -87 53 -58 28 23 12 70 -25 70 -9 0 -21 -5
-28 -12z"/>
<path d="M6930 6671 c-12 -23 -5 -47 16 -55 22 -8 54 11 54 32 0 41 -51 57
-70 23z"/>
<path d="M1270 6560 l0 -60 450 0 450 0 0 60 0 60 -450 0 -450 0 0 -60z"/>
<path d="M6460 6537 c0 -32 -5 -47 -16 -51 -14 -5 -16 -26 -12 -156 l3 -149
53 -54 52 -53 0 -700 0 -701 -91 -94 c-50 -52 -137 -144 -195 -205 l-104 -112
2 -428 3 -429 35 -3 35 -3 186 658 186 658 -10 680 -9 680 -55 59 -56 60 5
188 c3 104 1 191 -3 194 -5 3 -9 -15 -9 -39z"/>
<path d="M6962 6391 l-2 -194 -49 -56 -48 -56 -7 -255 c-3 -140 -9 -453 -12
-695 l-6 -440 47 -165 c167 -590 202 -716 251 -895 30 -110 57 -208 60 -218 4
-14 14 -17 42 -15 l37 3 3 428 2 429 -148 156 c-82 87 -167 178 -190 203 l-42
46 -1 708 0 708 44 46 45 46 6 152 c5 126 3 153 -8 160 -8 4 -16 28 -19 53 -2
25 -4 -42 -5 -149z"/>
<path d="M6367 6493 c-4 -3 -7 -79 -7 -168 l0 -162 50 -57 50 -57 2 -267 c1
-147 2 -339 1 -427 -1 -88 -2 -275 -2 -415 l-1 -255 -190 -197 -190 -196 2
-443 c2 -343 6 -443 16 -447 9 -3 12 89 12 438 l0 442 113 116 c62 65 150 155
195 202 l82 85 0 684 0 684 -50 58 -50 57 0 144 c0 169 -7 207 -33 181z"/>
<path d="M7036 6485 c-3 -9 -6 -84 -6 -167 l0 -150 -50 -58 -50 -58 0 -681 0
-681 72 -78 c39 -42 126 -134 192 -205 l121 -128 5 -437 c4 -380 7 -437 20
-437 13 0 15 54 16 425 1 234 -3 436 -8 449 -4 13 -61 78 -126 145 -65 66
-148 153 -185 192 l-67 71 0 681 0 682 50 55 50 56 -2 166 c-2 112 -7 168 -14
170 -6 2 -14 -3 -18 -12z"/>
<path d="M4623 6473 c-17 -6 -16 -38 2 -53 31 -26 82 13 56 44 -13 16 -34 19
-58 9z"/>
<path d="M8756 6465 c-29 -29 -12 -58 30 -53 25 3 29 7 29 33 0 23 -5 31 -21
33 -12 2 -29 -4 -38 -13z"/>
<path d="M5075 6446 c-20 -15 -17 -44 7 -59 12 -8 21 -7 32 2 36 30 -1 85 -39
57z"/>
<path d="M8312 6448 c-19 -19 -14 -48 11 -57 27 -11 47 3 47 34 0 32 -35 46
-58 23z"/>
<path d="M1270 6350 l0 -60 225 0 225 0 0 60 0 60 -225 0 -225 0 0 -60z"/>
<path d="M1812 6353 l3 -58 118 -3 117 -3 0 61 0 60 -120 0 -121 0 3 -57z"/>
<path d="M1270 6146 l0 -54 48 -4 c26 -2 237 -2 470 0 l422 5 0 53 0 54 -470
0 -470 0 0 -54z"/>
<path d="M4612 6048 c6 -24 14 -46 18 -51 9 -10 900 -14 900 -4 0 5 -5 28 -11
53 l-11 44 -453 0 -453 0 10 -42z"/>
<path d="M7911 6046 c-6 -25 -11 -47 -11 -50 0 -3 202 -6 450 -6 l449 0 10 38
c6 20 11 43 11 50 0 9 -96 12 -449 12 l-449 0 -11 -44z"/>
<path d="M1270 5935 l0 -55 416 0 415 0 -4 53 -3 52 -412 3 -412 2 0 -55z"/>
<path d="M4642 5938 c2 -7 16 -61 33 -120 l29 -108 126 -2 c69 -1 159 -3 200
-4 68 -2 78 1 102 23 27 25 55 28 100 8 13 -5 39 14 107 79 l89 86 67 0 c57 0
66 2 61 16 -3 9 -6 20 -6 25 0 5 -186 9 -456 9 -359 0 -455 -3 -452 -12z"/>
<path d="M7880 5941 c0 -5 -3 -16 -6 -25 -5 -14 4 -16 63 -16 l69 0 87 -85
c80 -78 90 -84 109 -74 33 18 78 13 103 -11 21 -19 31 -20 220 -18 l199 3 31
118 32 117 -453 0 c-269 0 -454 -4 -454 -9z"/>
<path d="M5354 5779 c-46 -46 -92 -99 -102 -118 -24 -50 -60 -68 -99 -52 -17
7 -35 23 -41 37 l-12 24 -190 0 c-111 0 -190 -4 -190 -9 0 -6 25 -103 56 -218
31 -114 81 -300 110 -412 29 -112 56 -206 59 -209 3 -3 5 66 5 154 l0 159 52
55 c28 30 139 146 246 258 l194 202 89 0 c48 0 90 4 93 9 3 5 -7 51 -22 102
l-28 94 -68 3 -67 3 -85 -82z m-280 -260 c70 -32 45 -139 -32 -139 -35 0 -72
38 -72 74 0 61 47 91 104 65z"/>
<path d="M5003 5474 c-14 -38 41 -71 66 -40 7 8 10 24 6 36 -8 25 -62 28 -72
4z"/>
<path d="M7855 5848 c-7 -20 -55 -188 -55 -193 0 -3 42 -5 94 -5 l93 0 244
-251 244 -251 5 -167 5 -166 24 95 c13 52 64 245 113 428 49 184 88 334 86
335 -2 1 -90 1 -195 -1 -156 -2 -193 -5 -193 -17 0 -24 -51 -57 -80 -50 -30 7
-70 49 -70 73 0 10 -40 54 -89 100 l-90 82 -66 0 c-43 0 -67 -4 -70 -12z m585
-338 c30 -30 27 -83 -6 -109 -54 -42 -118 -13 -118 54 0 66 78 101 124 55z"/>
<path d="M8366 5484 c-19 -19 -20 -36 -4 -52 18 -18 46 -14 58 9 9 16 8 25 -6
40 -21 23 -28 24 -48 3z"/>
<path d="M1270 5720 l0 -60 300 0 300 0 0 60 0 60 -300 0 -300 0 0 -60z"/>
<path d="M5172 5713 c-7 -3 -17 -14 -23 -25 -20 -37 33 -67 61 -33 22 26 -5
69 -38 58z"/>
<path d="M8228 5709 c-22 -12 -23 -42 -3 -59 32 -26 81 13 59 48 -14 21 -33
25 -56 11z"/>
<path d="M6142 5691 c-18 -11 -11 -51 10 -65 26 -16 53 14 44 48 -6 26 -29 33
-54 17z"/>
<path d="M7242 5688 c-29 -29 3 -82 36 -61 25 15 22 67 -3 71 -11 1 -26 -3
-33 -10z"/>
<path d="M5252 5403 c-115 -120 -221 -232 -236 -249 l-26 -32 0 -238 -1 -239
88 -328 88 -328 5 598 5 598 110 110 c61 61 129 128 152 149 l42 39 90 -2 c50
-1 95 1 101 4 10 6 -15 102 -32 123 -7 8 -39 12 -93 12 l-83 0 -210 -217z"/>
<path d="M7771 5558 c-12 -34 -21 -66 -21 -71 0 -5 43 -7 103 -4 l102 4 153
-154 152 -155 1 -587 c1 -523 3 -581 15 -541 8 25 48 171 89 324 l75 279 0
240 0 239 -236 244 -237 244 -88 0 -87 0 -21 -62z"/>
<path d="M4131 5433 c-63 -203 -151 -491 -176 -575 l-23 -78 57 0 56 0 58 198
c32 108 82 278 112 377 30 99 55 185 55 192 0 9 -16 13 -50 13 l-49 0 -40
-127z"/>
<path d="M6178 5410 c3 -65 2 -70 -17 -70 -19 0 -21 -6 -21 -77 l0 -77 51 -52
51 -52 -1 -158 -2 -158 -36 -40 c-20 -23 -108 -115 -195 -206 l-159 -164 3
-162 c2 -89 6 -165 10 -169 22 -22 28 17 28 168 l1 162 76 80 c42 44 129 135
195 203 l118 124 0 344 0 344 -45 0 c-33 0 -45 4 -45 15 0 8 -3 15 -7 15 -5 0
-7 -31 -5 -70z"/>
<path d="M6100 5422 c0 -43 6 -53 26 -45 9 3 14 20 14 44 0 32 -3 39 -20 39
-17 0 -20 -7 -20 -38z"/>
<path d="M7203 5452 l-43 -3 0 -346 0 -345 31 -37 c18 -20 103 -111 190 -203
l159 -166 0 -135 c0 -150 6 -193 26 -201 12 -4 14 24 14 167 l-1 172 -194 204
-195 204 0 161 0 162 50 49 50 49 0 74 c0 65 -2 74 -20 79 -16 4 -20 15 -22
62 l-3 56 -42 -3z"/>
<path d="M7300 5437 c0 -14 -3 -32 -6 -41 -5 -12 0 -16 17 -16 21 0 24 4 23
37 -1 27 -6 39 -18 41 -11 3 -16 -4 -16 -21z"/>
<path d="M6317 5443 c-4 -3 -7 -164 -7 -357 l-1 -351 -189 -198 -190 -199 0
-469 c0 -410 2 -469 15 -469 13 0 15 37 15 273 0 151 3 362 7 470 l6 196 189
198 188 198 0 358 c0 291 -2 357 -13 357 -8 0 -17 -3 -20 -7z"/>
<path d="M7080 5091 l0 -359 195 -204 194 -203 1 -463 c0 -366 3 -463 13 -460
9 4 13 108 14 469 l3 464 -190 200 -190 200 0 357 c0 351 0 358 -20 358 -20 0
-20 -7 -20 -359z"/>
<path d="M3675 5292 l-170 -78 -3 -90 -3 -90 159 -76 c221 -105 204 -103 200
-27 l-3 63 -138 60 c-75 34 -136 65 -134 70 2 5 59 33 127 63 69 30 129 58
134 64 10 9 15 119 6 119 -3 0 -81 -35 -175 -78z"/>
<path d="M4342 5314 l3 -57 134 -61 c74 -34 136 -67 138 -72 2 -6 -55 -37
-127 -69 -72 -32 -135 -64 -140 -70 -10 -12 -10 -115 0 -115 3 0 82 36 175 80
l170 79 3 93 2 93 -170 78 c-93 42 -175 77 -180 77 -7 0 -10 -21 -8 -56z"/>
<path d="M1270 5300 l0 -60 650 0 650 0 0 60 0 60 -650 0 -650 0 0 -60z"/>
<path d="M5324 5146 c-3 -8 -4 -23 -2 -33 5 -25 61 -25 66 0 7 37 -51 67 -64
33z"/>
<path d="M8051 5146 c-15 -17 -7 -52 14 -60 8 -3 24 3 37 14 19 15 21 22 12
37 -14 23 -47 28 -63 9z"/>
<path d="M5980 5025 c-18 -21 -3 -55 25 -55 29 0 39 14 31 46 -7 27 -37 32
-56 9z"/>
<path d="M7402 5028 c-16 -16 -15 -43 1 -56 15 -12 55 2 63 23 13 33 -38 59
-64 33z"/>
<path d="M1270 4885 l0 -55 265 0 265 0 0 55 0 55 -265 0 -265 0 0 -55z"/>
<path d="M7857 4909 c-27 -15 -22 -57 7 -65 32 -8 46 2 46 31 0 29 -28 47 -53
34z"/>
<path d="M5527 4904 c-14 -15 -7 -53 12 -59 31 -10 52 5 49 34 -2 19 -9 27
-28 29 -14 2 -29 0 -33 -4z"/>
<path d="M1277 4523 c-4 -3 -7 -30 -7 -60 l0 -53 343 -2 342 -3 3 -42 3 -43
-345 0 -346 0 0 -462 0 -461 248 6 c136 4 340 7 455 7 l207 0 0 560 0 560
-448 0 c-247 0 -452 -3 -455 -7z"/>
<path d="M5600 4430 c-15 -28 4 -52 39 -48 22 2 26 8 26 33 0 25 -4 31 -27 33
-19 2 -30 -3 -38 -18z"/>
<path d="M7764 4436 c-12 -31 0 -51 30 -51 36 0 56 26 37 49 -17 20 -60 21
-67 2z"/>
<path d="M5873 3999 c-7 -7 -13 -35 -13 -61 0 -50 -24 -88 -55 -88 -13 0 -15
-32 -15 -225 l0 -225 45 0 c28 0 48 5 50 13 3 7 4 144 3 305 -2 234 -5 291
-15 281z"/>
<path d="M7542 3703 l3 -298 45 0 45 0 3 214 2 214 -32 27 c-27 23 -33 36 -38
80 -3 30 -11 55 -18 58 -10 3 -12 -58 -10 -295z"/>
<path d="M5765 3946 c-20 -15 -17 -44 7 -59 12 -8 21 -7 32 2 36 30 -1 85 -39
57z"/>
<path d="M7622 3948 c-18 -18 -14 -46 7 -58 38 -20 71 13 51 51 -12 21 -40 25
-58 7z"/>
</g>
</svg>
